<?xml version="1.0" encoding="UTF-8"?>
<svg xmlns="http://www.w3.org/2000/svg" xmlns:xlink="http://www.w3.org/1999/xlink" width="500px" height="462px" viewBox="0 0 499 462" version="1.1">
<g id="surface1">
<path style="fill-rule:evenodd;fill:rgb(100%,100%,100%);fill-opacity:1;stroke-width:3;stroke-linecap:butt;stroke-linejoin:miter;stroke:rgb(0%,0%,0%);stroke-opacity:1;stroke-miterlimit:4;" d="M 592.000313 1.501082 C 602.632265 1.501082 612.254947 5.811756 619.225827 12.774012 C 626.191759 19.746144 630.500939 29.369859 630.500939 40.000879 L 630.500939 543.999121 C 630.500939 554.630141 626.191759 564.253856 619.225827 571.225988 C 612.254947 578.188244 602.632265 582.498918 592.000313 582.498918 L 39.999687 582.498918 C 29.367735 582.498918 19.745053 578.188244 12.774173 571.225988 C 5.808241 564.253856 1.499061 554.630141 1.499061 543.999121 L 1.499061 40.000879 C 1.499061 29.369859 5.808241 19.746144 12.774173 12.774012 C 19.745053 5.811756 29.367735 1.501082 39.999687 1.501082 Z M 579.997933 458.501623 C 570.751253 458.501623 562.375313 462.249391 556.309807 468.312973 C 550.249248 474.371618 546.499123 482.751015 546.499123 491.999459 C 546.499123 501.247903 550.249248 509.6273 556.309807 515.685944 C 562.375313 521.749527 570.751253 525.502232 579.997933 525.502232 C 589.249562 525.502232 597.625501 521.749527 603.68606 515.685944 C 609.751566 509.6273 613.501691 501.252841 613.501691 491.999459 C 613.501691 482.751015 609.751566 474.371618 603.68606 468.312973 C 597.625501 462.249391 589.249562 458.501623 579.997933 458.501623 Z M 491.998622 458.501623 C 482.751941 458.501623 474.376002 462.249391 468.310496 468.312973 C 462.249937 474.371618 458.499812 482.751015 458.499812 491.999459 C 458.499812 501.247903 462.249937 509.6273 468.310496 515.685944 C 474.376002 521.749527 482.746994 525.502232 491.998622 525.502232 C 501.250251 525.502232 509.62619 521.749527 515.686748 515.685944 C 521.752255 509.6273 525.50238 501.252841 525.50238 491.999459 C 525.50238 482.751015 521.752255 474.371618 515.686748 468.312973 C 509.62619 462.249391 501.250251 458.501623 491.998622 458.501623 Z M 403.999311 458.501623 C 394.747683 458.501623 386.371743 462.249391 380.311185 468.312973 C 374.250626 474.371618 370.500501 482.751015 370.500501 491.999459 C 370.500501 501.247903 374.250626 509.6273 380.311185 515.685944 C 386.371743 521.749527 394.747683 525.502232 403.999311 525.502232 C 413.250939 525.502232 421.626879 521.749527 427.687437 515.685944 C 433.747996 509.6273 437.498121 501.252841 437.498121 491.999459 C 437.498121 482.751015 433.747996 474.371618 427.687437 468.312973 C 421.626879 462.249391 413.250939 458.501623 403.999311 458.501623 Z M 228.000689 458.501623 C 218.749061 458.501623 210.373121 462.249391 204.312563 468.312973 C 198.252004 474.371618 194.501879 482.751015 194.501879 491.999459 C 194.501879 501.247903 198.252004 509.6273 204.312563 515.685944 C 210.373121 521.749527 218.749061 525.502232 228.000689 525.502232 C 237.252317 525.502232 245.628257 521.749527 251.688815 515.685944 C 257.749374 509.6273 261.499499 501.252841 261.499499 491.999459 C 261.499499 482.751015 257.749374 474.371618 251.688815 468.312973 C 245.628257 462.249391 237.252317 458.501623 228.000689 458.501623 Z M 316 458.501623 C 306.748372 458.501623 298.372432 462.249391 292.311874 468.312973 C 286.251315 474.371618 282.50119 482.751015 282.50119 491.999459 C 282.50119 501.247903 286.251315 509.6273 292.311874 515.685944 C 298.372432 521.749527 306.748372 525.502232 316 525.502232 C 325.251628 525.502232 333.627568 521.749527 339.688126 515.685944 C 345.748685 509.6273 349.49881 501.252841 349.49881 491.999459 C 349.49881 482.751015 345.748685 474.371618 339.688126 468.312973 C 333.627568 462.249391 325.251628 458.501623 316 458.501623 Z M 140.006325 458.501623 C 130.754697 458.496686 122.37381 462.249391 116.313252 468.312973 C 110.247745 474.371618 106.49762 482.751015 106.49762 491.999459 C 106.49762 501.247903 110.247745 509.6273 116.313252 515.685944 C 122.37381 521.749527 130.749749 525.502232 140.001378 525.502232 C 149.248059 525.502232 157.623998 521.749527 163.689504 515.685944 C 169.750063 509.6273 173.500188 501.252841 173.500188 491.999459 C 173.500188 482.84977 169.829221 474.554315 163.882452 468.510484 C 157.925789 462.45184 149.683429 458.649756 140.545591 458.501623 Z M 52.002067 458.501623 C 42.750438 458.501623 34.374499 462.249391 28.31394 468.312973 C 22.248434 474.371618 18.498309 482.751015 18.498309 491.999459 C 18.498309 501.247903 22.248434 509.6273 28.31394 515.685944 C 34.374499 521.749527 42.750438 525.502232 52.002067 525.502232 C 61.248747 525.502232 69.624687 521.749527 75.690193 515.685944 C 81.750752 509.6273 85.500877 501.252841 85.500877 491.999459 C 85.500877 482.751015 81.750752 474.371618 75.690193 468.312973 C 69.624687 462.249391 61.248747 458.501623 52.002067 458.501623 Z M 579.997933 370.500676 C 570.751253 370.500676 562.375313 374.248444 556.309807 380.312027 C 550.249248 386.375609 546.499123 394.750068 546.499123 403.998512 C 546.499123 413.251894 550.249248 421.626353 556.309807 427.689935 C 562.375313 433.74858 570.751253 437.501285 579.997933 437.501285 C 589.249562 437.501285 597.625501 433.74858 603.68606 427.689935 C 609.751566 421.626353 613.501691 413.251894 613.501691 403.998512 C 613.501691 394.750068 609.751566 386.375609 603.68606 380.312027 C 597.625501 374.248444 589.249562 370.500676 579.997933 370.500676 Z M 491.998622 370.500676 C 482.751941 370.500676 474.376002 374.248444 468.310496 380.312027 C 462.249937 386.375609 458.499812 394.750068 458.499812 403.998512 C 458.499812 413.251894 462.249937 421.626353 468.310496 427.689935 C 474.376002 433.74858 482.746994 437.501285 491.998622 437.501285 C 501.250251 437.501285 509.62619 433.74858 515.686748 427.689935 C 521.752255 421.626353 525.50238 413.251894 525.50238 403.998512 C 525.50238 394.750068 521.752255 386.375609 515.686748 380.312027 C 509.62619 374.248444 501.250251 370.500676 491.998622 370.500676 Z M 403.999311 370.500676 C 394.747683 370.500676 386.371743 374.248444 380.311185 380.312027 C 374.250626 386.375609 370.500501 394.750068 370.500501 403.998512 C 370.500501 413.251894 374.250626 421.626353 380.311185 427.689935 C 386.371743 433.74858 394.747683 437.501285 403.999311 437.501285 C 413.250939 437.501285 421.626879 433.74858 427.687437 427.689935 C 433.747996 421.626353 437.498121 413.251894 437.498121 403.998512 C 437.498121 394.750068 433.747996 386.375609 427.687437 380.312027 C 421.626879 374.248444 413.250939 370.500676 403.999311 370.500676 Z M 316 370.500676 C 306.748372 370.500676 298.372432 374.248444 292.311874 380.312027 C 286.251315 386.375609 282.50119 394.750068 282.50119 403.998512 C 282.50119 413.251894 286.251315 421.626353 292.311874 427.689935 C 298.372432 433.74858 306.748372 437.501285 316 437.501285 C 325.251628 437.501285 333.627568 433.74858 339.688126 427.689935 C 345.748685 421.626353 349.49881 413.251894 349.49881 403.998512 C 349.49881 394.750068 345.748685 386.375609 339.688126 380.312027 C 333.627568 374.248444 325.251628 370.500676 316 370.500676 Z M 228.000689 370.500676 C 218.749061 370.500676 210.373121 374.248444 204.312563 380.312027 C 198.252004 386.375609 194.501879 394.750068 194.501879 403.998512 C 194.501879 413.251894 198.252004 421.626353 204.312563 427.689935 C 210.373121 433.74858 218.749061 437.501285 228.000689 437.501285 C 237.252317 437.501285 245.628257 433.74858 251.688815 427.689935 C 257.749374 421.626353 261.499499 413.251894 261.499499 403.998512 C 261.499499 394.750068 257.749374 386.375609 251.688815 380.312027 C 245.628257 374.248444 237.252317 370.500676 228.000689 370.500676 Z M 140.001378 370.500676 C 130.749749 370.500676 122.37381 374.248444 116.313252 380.312027 C 110.247745 386.375609 106.49762 394.750068 106.49762 403.998512 C 106.49762 413.251894 110.247745 421.626353 116.313252 427.689935 C 122.37381 433.74858 130.749749 437.501285 140.001378 437.501285 C 149.248059 437.501285 157.623998 433.74858 163.689504 427.689935 C 169.750063 421.626353 173.500188 413.251894 173.500188 403.998512 C 173.500188 394.750068 169.750063 386.375609 163.689504 380.312027 C 157.623998 374.248444 149.253006 370.500676 140.001378 370.500676 Z M 52.002067 370.500676 C 42.750438 370.500676 34.374499 374.248444 28.31394 380.312027 C 22.248434 386.375609 18.498309 394.750068 18.498309 403.998512 C 18.498309 413.251894 22.248434 421.626353 28.31394 427.689935 C 34.374499 433.74858 42.750438 437.501285 52.002067 437.501285 C 61.248747 437.501285 69.624687 433.74858 75.690193 427.689935 C 81.750752 421.626353 85.500877 413.251894 85.500877 403.998512 C 85.500877 394.750068 81.750752 386.375609 75.690193 380.312027 C 69.624687 374.248444 61.248747 370.500676 52.002067 370.500676 Z M 52.002067 282.499729 C 42.750438 282.499729 34.374499 286.252435 28.31394 292.31108 C 22.248434 298.374662 18.498309 306.749121 18.498309 315.997565 C 18.498309 325.250947 22.248434 333.625406 28.31394 339.688988 C 34.374499 345.747633 42.750438 349.500338 52.002067 349.500338 C 61.248747 349.500338 69.624687 345.747633 75.690193 339.688988 C 81.750752 333.625406 85.500877 325.250947 85.500877 315.997565 C 85.500877 306.749121 81.750752 298.374662 75.690193 292.31108 C 69.624687 286.252435 61.248747 282.499729 52.002067 282.499729 Z M 140.001378 282.499729 C 130.749749 282.499729 122.37381 286.252435 116.313252 292.31108 C 110.247745 298.374662 106.49762 306.749121 106.49762 315.997565 C 106.49762 325.250947 110.247745 333.625406 116.313252 339.688988 C 122.37381 345.747633 130.749749 349.500338 140.001378 349.500338 C 149.248059 349.500338 157.623998 345.747633 163.689504 339.688988 C 169.750063 333.625406 173.500188 325.250947 173.500188 315.997565 C 173.500188 306.749121 169.750063 298.374662 163.689504 292.31108 C 157.623998 286.252435 149.253006 282.499729 140.001378 282.499729 Z M 228.000689 282.499729 C 218.749061 282.499729 210.373121 286.252435 204.312563 292.31108 C 198.252004 298.374662 194.501879 306.749121 194.501879 315.997565 C 194.501879 325.250947 198.252004 333.625406 204.312563 339.688988 C 210.373121 345.747633 218.749061 349.500338 228.000689 349.500338 C 237.252317 349.500338 245.628257 345.747633 251.688815 339.688988 C 257.749374 333.625406 261.499499 325.250947 261.499499 315.997565 C 261.499499 306.749121 257.749374 298.374662 251.688815 292.31108 C 245.628257 286.252435 237.252317 282.499729 228.000689 282.499729 Z M 316 282.499729 C 306.748372 282.499729 298.372432 286.252435 292.311874 292.31108 C 286.251315 298.374662 282.50119 306.749121 282.50119 315.997565 C 282.50119 325.250947 286.251315 333.625406 292.311874 339.688988 C 298.372432 345.747633 306.748372 349.500338 316 349.500338 C 325.251628 349.500338 333.627568 345.747633 339.688126 339.688988 C 345.748685 333.625406 349.49881 325.250947 349.49881 315.997565 C 349.49881 306.749121 345.748685 298.374662 339.688126 292.31108 C 333.627568 286.252435 325.251628 282.499729 316 282.499729 Z M 403.999311 282.499729 C 394.747683 282.499729 386.371743 286.252435 380.311185 292.31108 C 374.250626 298.374662 370.500501 306.749121 370.500501 315.997565 C 370.500501 325.250947 374.250626 333.625406 380.311185 339.688988 C 386.371743 345.747633 394.747683 349.500338 403.999311 349.500338 C 413.250939 349.500338 421.626879 345.747633 427.687437 339.688988 C 433.747996 333.625406 437.498121 325.250947 437.498121 315.997565 C 437.498121 306.749121 433.747996 298.374662 427.687437 292.31108 C 421.626879 286.252435 413.250939 282.499729 403.999311 282.499729 Z M 491.998622 282.499729 C 482.751941 282.499729 474.376002 286.252435 468.310496 292.31108 C 462.249937 298.374662 458.499812 306.749121 458.499812 315.997565 C 458.499812 325.250947 462.249937 333.625406 468.310496 339.688988 C 474.376002 345.747633 482.746994 349.500338 491.998622 349.500338 C 501.250251 349.500338 509.62619 345.747633 515.686748 339.688988 C 521.752255 333.625406 525.50238 325.250947 525.50238 315.997565 C 525.50238 306.749121 521.752255 298.374662 515.686748 292.31108 C 509.62619 286.252435 501.250251 282.499729 491.998622 282.499729 Z M 579.997933 282.499729 C 570.751253 282.499729 562.375313 286.252435 556.309807 292.31108 C 550.249248 298.374662 546.499123 306.749121 546.499123 315.997565 C 546.499123 325.250947 550.249248 333.625406 556.309807 339.688988 C 562.375313 345.747633 570.751253 349.500338 579.997933 349.500338 C 589.249562 349.500338 597.625501 345.747633 603.68606 339.688988 C 609.751566 333.625406 613.501691 325.250947 613.501691 315.997565 C 613.501691 306.749121 609.751566 298.374662 603.68606 292.31108 C 597.625501 286.252435 589.249562 282.499729 579.997933 282.499729 Z M 140.001378 194.498782 C 130.749749 194.498782 122.37381 198.251488 116.313252 204.310133 C 110.247745 210.373715 106.49762 218.748174 106.49762 228.001556 C 106.49762 237.25 110.247745 245.624459 116.313252 251.688041 C 122.37381 257.751623 130.749749 261.499391 140.001378 261.499391 C 149.248059 261.499391 157.623998 257.751623 163.689504 251.688041 C 169.750063 245.624459 173.500188 237.25 173.500188 228.001556 C 173.500188 218.748174 169.750063 210.373715 163.689504 204.310133 C 157.623998 198.251488 149.253006 194.498782 140.001378 194.498782 Z M 228.000689 194.498782 C 218.749061 194.498782 210.373121 198.251488 204.312563 204.310133 C 198.252004 210.373715 194.501879 218.748174 194.501879 228.001556 C 194.501879 237.25 198.252004 245.624459 204.312563 251.688041 C 210.373121 257.751623 218.749061 261.499391 228.000689 261.499391 C 237.252317 261.499391 245.628257 257.751623 251.688815 251.688041 C 257.749374 245.624459 261.499499 237.25 261.499499 228.001556 C 261.499499 218.748174 257.749374 210.373715 251.688815 204.310133 C 245.628257 198.251488 237.252317 194.498782 228.000689 194.498782 Z M 316 194.498782 C 306.748372 194.498782 298.372432 198.251488 292.311874 204.310133 C 286.251315 210.373715 282.50119 218.748174 282.50119 228.001556 C 282.50119 237.25 286.251315 245.624459 292.311874 251.688041 C 298.372432 257.751623 306.748372 261.499391 316 261.499391 C 325.251628 261.499391 333.627568 257.751623 339.688126 251.688041 C 345.748685 245.624459 349.49881 237.25 349.49881 228.001556 C 349.49881 218.748174 345.748685 210.373715 339.688126 204.310133 C 333.627568 198.251488 325.251628 194.498782 316 194.498782 Z M 403.999311 194.498782 C 394.747683 194.498782 386.371743 198.251488 380.311185 204.310133 C 374.250626 210.373715 370.500501 218.748174 370.500501 228.001556 C 370.500501 237.25 374.250626 245.624459 380.311185 251.688041 C 386.371743 257.751623 394.747683 261.499391 403.999311 261.499391 C 413.250939 261.499391 421.626879 257.751623 427.687437 251.688041 C 433.747996 245.624459 437.498121 237.25 437.498121 228.001556 C 437.498121 218.748174 433.747996 210.373715 427.687437 204.310133 C 421.626879 198.251488 413.250939 194.498782 403.999311 194.498782 Z M 491.998622 194.498782 C 482.751941 194.498782 474.376002 198.251488 468.310496 204.310133 C 462.249937 210.373715 458.499812 218.748174 458.499812 228.001556 C 458.499812 237.25 462.249937 245.624459 468.310496 251.688041 C 474.376002 257.751623 482.746994 261.499391 491.998622 261.499391 C 501.250251 261.499391 509.62619 257.751623 515.686748 251.688041 C 521.752255 245.624459 525.50238 237.25 525.50238 228.001556 C 525.50238 218.748174 521.752255 210.373715 515.686748 204.310133 C 509.62619 198.251488 501.250251 194.498782 491.998622 194.498782 Z M 579.997933 194.498782 C 570.751253 194.498782 562.375313 198.251488 556.309807 204.310133 C 550.249248 210.373715 546.499123 218.748174 546.499123 228.001556 C 546.499123 237.25 550.249248 245.624459 556.309807 251.688041 C 562.375313 257.751623 570.751253 261.499391 579.997933 261.499391 C 589.249562 261.499391 597.625501 257.751623 603.68606 251.688041 C 609.751566 245.624459 613.501691 237.25 613.501691 228.001556 C 613.501691 218.748174 609.751566 210.373715 603.68606 204.310133 C 597.625501 198.251488 589.249562 194.498782 579.997933 194.498782 Z M 52.002067 194.498782 C 42.750438 194.498782 34.374499 198.251488 28.31394 204.310133 C 22.248434 210.373715 18.498309 218.748174 18.498309 228.001556 C 18.498309 237.25 22.248434 245.624459 28.31394 251.688041 C 34.374499 257.751623 42.750438 261.499391 52.002067 261.499391 C 61.248747 261.499391 69.624687 257.751623 75.690193 251.688041 C 81.750752 245.624459 85.500877 237.25 85.500877 228.001556 C 85.500877 218.748174 81.750752 210.373715 75.690193 204.310133 C 69.624687 198.251488 61.248747 194.498782 52.002067 194.498782 Z M 579.997933 106.497835 C 570.751253 106.497835 562.375313 110.250541 556.309807 116.314123 C 550.249248 122.372768 546.499123 130.747227 546.499123 140.000609 C 546.499123 149.249053 550.249248 157.62845 556.309807 163.687094 C 562.375313 169.750676 570.751253 173.498444 579.997933 173.498444 C 589.249562 173.498444 597.625501 169.750676 603.68606 163.687094 C 609.751566 157.62845 613.501691 149.249053 613.501691 140.000609 C 613.501691 130.752165 609.751566 122.372768 603.68606 116.314123 C 597.625501 110.250541 589.249562 106.497835 579.997933 106.497835 Z M 491.998622 106.497835 C 482.751941 106.497835 474.376002 110.250541 468.310496 116.314123 C 462.249937 122.372768 458.499812 130.747227 458.499812 140.000609 C 458.499812 149.249053 462.249937 157.62845 468.310496 163.687094 C 474.376002 169.750676 482.746994 173.498444 491.998622 173.498444 C 501.250251 173.498444 509.62619 169.750676 515.686748 163.687094 C 521.752255 157.62845 525.50238 149.249053 525.50238 140.000609 C 525.50238 130.752165 521.752255 122.372768 515.686748 116.314123 C 509.62619 110.250541 501.250251 106.497835 491.998622 106.497835 Z M 403.999311 106.497835 C 394.747683 106.497835 386.371743 110.250541 380.311185 116.314123 C 374.250626 122.372768 370.500501 130.747227 370.500501 140.000609 C 370.500501 149.249053 374.250626 157.62845 380.311185 163.687094 C 386.371743 169.750676 394.747683 173.498444 403.999311 173.498444 C 413.250939 173.498444 421.626879 169.750676 427.687437 163.687094 C 433.747996 157.62845 437.498121 149.249053 437.498121 140.000609 C 437.498121 130.752165 433.747996 122.372768 427.687437 116.314123 C 421.626879 110.250541 413.250939 106.497835 403.999311 106.497835 Z M 316 106.497835 C 306.748372 106.497835 298.372432 110.250541 292.311874 116.314123 C 286.251315 122.372768 282.50119 130.747227 282.50119 140.000609 C 282.50119 149.249053 286.251315 157.62845 292.311874 163.687094 C 298.372432 169.750676 306.748372 173.498444 316 173.498444 C 325.251628 173.498444 333.627568 169.750676 339.688126 163.687094 C 345.748685 157.62845 349.49881 149.249053 349.49881 140.000609 C 349.49881 130.752165 345.748685 122.372768 339.688126 116.314123 C 333.627568 110.250541 325.251628 106.497835 316 106.497835 Z M 228.000689 106.497835 C 218.749061 106.497835 210.373121 110.250541 204.312563 116.314123 C 198.252004 122.372768 194.501879 130.747227 194.501879 140.000609 C 194.501879 149.249053 198.252004 157.62845 204.312563 163.687094 C 210.373121 169.750676 218.749061 173.498444 228.000689 173.498444 C 237.252317 173.498444 245.628257 169.750676 251.688815 163.687094 C 257.749374 157.62845 261.499499 149.249053 261.499499 140.000609 C 261.499499 130.752165 257.749374 122.372768 251.688815 116.314123 C 245.628257 110.250541 237.252317 106.497835 228.000689 106.497835 Z M 140.001378 106.497835 C 130.749749 106.497835 122.37381 110.250541 116.313252 116.314123 C 110.247745 122.372768 106.49762 130.747227 106.49762 140.000609 C 106.49762 149.249053 110.247745 157.62845 116.313252 163.687094 C 122.37381 169.750676 130.749749 173.498444 140.001378 173.498444 C 149.248059 173.498444 157.623998 169.750676 163.689504 163.687094 C 169.750063 157.62845 173.500188 149.249053 173.500188 140.000609 C 173.500188 130.752165 169.750063 122.372768 163.689504 116.314123 C 157.623998 110.250541 149.253006 106.497835 140.001378 106.497835 Z M 52.002067 106.497835 C 42.750438 106.497835 34.374499 110.250541 28.31394 116.314123 C 22.248434 122.372768 18.498309 130.747227 18.498309 140.000609 C 18.498309 149.249053 22.248434 157.62845 28.31394 163.687094 C 34.374499 169.750676 42.750438 173.498444 52.002067 173.498444 C 61.248747 173.498444 69.624687 169.750676 75.690193 163.687094 C 81.750752 157.62845 85.500877 149.249053 85.500877 140.000609 C 85.500877 130.752165 81.750752 122.372768 75.690193 116.314123 C 69.624687 110.250541 61.248747 106.497835 52.002067 106.497835 Z M 579.997933 18.501826 C 570.751253 18.501826 562.375313 22.249594 556.309807 28.313176 C 550.249248 34.371821 546.499123 42.751218 546.499123 51.999662 C 546.499123 61.248106 550.249248 69.627503 556.309807 75.686147 C 562.375313 81.749729 570.751253 85.502435 579.997933 85.502435 C 589.249562 85.502435 597.625501 81.749729 603.68606 75.686147 C 609.751566 69.627503 613.501691 61.253044 613.501691 51.999662 C 613.501691 42.751218 609.751566 34.371821 603.68606 28.313176 C 597.625501 22.249594 589.249562 18.501826 579.997933 18.501826 Z M 491.998622 18.501826 C 482.751941 18.501826 474.376002 22.249594 468.310496 28.313176 C 462.249937 34.371821 458.499812 42.751218 458.499812 51.999662 C 458.499812 61.248106 462.249937 69.627503 468.310496 75.686147 C 474.376002 81.749729 482.746994 85.502435 491.998622 85.502435 C 501.250251 85.502435 509.62619 81.749729 515.686748 75.686147 C 521.752255 69.627503 525.50238 61.253044 525.50238 51.999662 C 525.50238 42.751218 521.752255 34.371821 515.686748 28.313176 C 509.62619 22.249594 501.250251 18.501826 491.998622 18.501826 Z M 403.999311 18.501826 C 394.747683 18.501826 386.371743 22.249594 380.311185 28.313176 C 374.250626 34.371821 370.500501 42.751218 370.500501 51.999662 C 370.500501 61.248106 374.250626 69.627503 380.311185 75.686147 C 386.371743 81.749729 394.747683 85.502435 403.999311 85.502435 C 413.250939 85.502435 421.626879 81.749729 427.687437 75.686147 C 433.747996 69.627503 437.498121 61.253044 437.498121 51.999662 C 437.498121 42.751218 433.747996 34.371821 427.687437 28.313176 C 421.626879 22.249594 413.250939 18.501826 403.999311 18.501826 Z M 316 18.501826 C 306.748372 18.501826 298.372432 22.249594 292.311874 28.313176 C 286.251315 34.371821 282.50119 42.751218 282.50119 51.999662 C 282.50119 61.248106 286.251315 69.627503 292.311874 75.686147 C 298.372432 81.749729 306.748372 85.502435 316 85.502435 C 325.251628 85.502435 333.627568 81.749729 339.688126 75.686147 C 345.748685 69.627503 349.49881 61.253044 349.49881 51.999662 C 349.49881 42.751218 345.748685 34.371821 339.688126 28.313176 C 333.627568 22.249594 325.251628 18.501826 316 18.501826 Z M 228.000689 18.501826 C 218.749061 18.501826 210.373121 22.249594 204.312563 28.313176 C 198.252004 34.371821 194.501879 42.751218 194.501879 51.999662 C 194.501879 61.248106 198.252004 69.627503 204.312563 75.686147 C 210.373121 81.749729 218.749061 85.502435 228.000689 85.502435 C 237.252317 85.502435 245.628257 81.749729 251.688815 75.686147 C 257.749374 69.627503 261.499499 61.253044 261.499499 51.999662 C 261.499499 42.751218 257.749374 34.371821 251.688815 28.313176 C 245.628257 22.249594 237.252317 18.501826 228.000689 18.501826 Z M 140.001378 18.501826 C 130.749749 18.501826 122.37381 22.249594 116.313252 28.313176 C 110.247745 34.371821 106.49762 42.751218 106.49762 51.999662 C 106.49762 61.248106 110.247745 69.627503 116.313252 75.686147 C 122.37381 81.749729 130.749749 85.502435 140.001378 85.502435 C 149.248059 85.502435 157.623998 81.749729 163.689504 75.686147 C 169.750063 69.627503 173.500188 61.253044 173.500188 51.999662 C 173.500188 42.751218 169.750063 34.371821 163.689504 28.313176 C 157.623998 22.249594 149.253006 18.501826 140.001378 18.501826 Z M 52.002067 18.501826 C 42.750438 18.501826 34.374499 22.249594 28.31394 28.313176 C 22.248434 34.371821 18.498309 42.751218 18.498309 51.999662 C 18.498309 61.248106 22.248434 69.627503 28.31394 75.686147 C 34.374499 81.749729 42.750438 85.502435 52.002067 85.502435 C 61.248747 85.502435 69.624687 81.749729 75.690193 75.686147 C 81.750752 69.627503 85.500877 61.253044 85.500877 51.999662 C 85.500877 42.751218 81.750752 34.371821 75.690193 28.313176 C 69.624687 22.249594 61.248747 18.501826 52.002067 18.501826 Z M 52.002067 18.501826 " transform="matrix(0.789557,0,0,0.791096,0,0)"/>
</g>
</svg>
