<?xml version="1.0" encoding="UTF-8"?>
<svg xmlns="http://www.w3.org/2000/svg" xmlns:xlink="http://www.w3.org/1999/xlink" width="270px" height="250px" viewBox="0 0 270 250" version="1.1">
<g id="surface1">
<path style="fill-rule:evenodd;fill:rgb(100%,100%,100%);fill-opacity:1;stroke-width:3;stroke-linecap:butt;stroke-linejoin:miter;stroke:rgb(0%,0%,0%);stroke-opacity:1;stroke-miterlimit:4;" d="M 314.997902 1.501562 C 320.111111 1.501562 324.734809 3.569844 328.078993 6.916875 C 331.554036 10.385 333.507234 15.093125 333.502387 19.999844 L 333.502387 290.000156 C 333.502387 295.110313 331.428024 299.736094 328.078993 303.083125 C 324.613643 306.556094 319.907552 308.508125 314.997902 308.498438 L 20.002098 308.498438 C 14.888889 308.498438 10.265191 306.430156 6.921007 303.083125 C 3.445964 299.615 1.492766 294.906875 1.497613 290.000156 L 1.497613 19.999844 C 1.497613 14.889687 3.571976 10.263906 6.921007 6.916875 C 10.386357 3.443906 15.092448 1.491875 20.002098 1.501562 Z M 307.437138 242.676719 C 302.338469 242.676719 297.719618 244.749844 294.380281 248.092031 C 290.914931 251.560156 288.96658 256.263438 288.976273 261.165312 C 288.96658 266.067187 290.914931 270.770469 294.380281 274.23375 C 297.835938 277.706719 302.537182 279.65875 307.437138 279.649063 C 312.535807 279.649063 317.149812 277.580781 320.493996 274.23375 C 323.959346 270.770469 325.907697 266.067187 325.898003 261.165312 C 325.907697 256.263438 323.959346 251.560156 320.493996 248.092031 C 317.033492 244.619062 312.337095 242.671875 307.437138 242.676719 Z M 260.793041 242.676719 C 255.694372 242.676719 251.075521 244.749844 247.736183 248.092031 C 244.265987 251.560156 242.322483 256.263438 242.327329 261.165312 C 242.322483 266.067187 244.265987 270.770469 247.736183 274.23375 C 251.19184 277.706719 255.893084 279.65875 260.793041 279.649063 C 265.89171 279.649063 270.505715 277.580781 273.845052 274.23375 C 277.315249 270.770469 279.258753 266.067187 279.253906 261.165312 C 279.258753 256.263438 277.315249 251.560156 273.845052 248.092031 C 270.389395 244.619062 265.688151 242.671875 260.793041 242.676719 Z M 214.144097 242.676719 C 209.045428 242.676719 204.431424 244.749844 201.092086 248.092031 C 197.621889 251.560156 195.678385 256.263438 195.683232 261.165312 C 195.678385 266.067187 197.621889 270.770469 201.092086 274.23375 C 204.547743 277.706719 209.244141 279.65875 214.144097 279.649063 C 219.242766 279.649063 223.861617 277.580781 227.200955 274.23375 C 230.671152 270.770469 232.614656 266.067187 232.609809 261.165312 C 232.614656 256.263438 230.671152 251.560156 227.200955 248.092031 C 223.745298 244.619062 219.044054 242.671875 214.144097 242.676719 Z M 120.855903 242.676719 C 115.757234 242.676719 111.138383 244.749844 107.799045 248.092031 C 104.328848 251.560156 102.385344 256.263438 102.390191 261.165312 C 102.385344 266.067187 104.328848 270.770469 107.799045 274.23375 C 111.254702 277.706719 115.955946 279.65875 120.855903 279.649063 C 125.954572 279.649063 130.568576 277.580781 133.907914 274.23375 C 137.378111 270.770469 139.321615 266.067187 139.316768 261.165312 C 139.321615 256.263438 137.378111 251.560156 133.907914 248.092031 C 130.452257 244.619062 125.755859 242.671875 120.855903 242.676719 Z M 167.5 242.676719 C 162.401331 242.676719 157.787326 244.749844 154.443142 248.092031 C 150.977792 251.560156 149.029442 256.263438 149.039135 261.165312 C 149.029442 266.067187 150.977792 270.770469 154.443142 274.23375 C 157.903646 277.706719 162.600043 279.65875 167.5 279.649063 C 172.598669 279.649063 177.212674 277.580781 180.556858 274.23375 C 184.022208 270.770469 185.970558 266.067187 185.960865 261.165312 C 185.970558 256.263438 184.022208 251.560156 180.556858 248.092031 C 177.096354 244.619062 172.399957 242.671875 167.5 242.676719 Z M 74.206959 242.676719 C 69.10829 242.676719 64.494285 244.749844 61.154948 248.092031 C 57.684751 251.560156 55.741247 256.263438 55.746094 261.165312 C 55.741247 266.067187 57.684751 270.770469 61.154948 274.23375 C 64.610605 277.706719 69.307002 279.65875 74.206959 279.649063 C 79.305628 279.649063 83.924479 277.580781 87.263817 274.23375 C 90.734013 270.770469 92.677517 266.067187 92.672671 261.165312 C 92.672671 256.09875 90.63708 251.511719 87.30259 248.174375 C 83.997179 244.86125 79.402561 242.773594 74.206959 242.676719 Z M 27.562862 242.676719 C 22.464193 242.676719 17.850188 244.749844 14.506004 248.092031 C 11.040654 251.560156 9.092303 256.263438 9.101997 261.165312 C 9.092303 266.067187 11.040654 270.770469 14.506004 274.23375 C 17.961661 277.706719 22.662905 279.65875 27.562862 279.649063 C 32.661531 279.649063 37.275535 277.580781 40.619719 274.23375 C 44.085069 270.770469 46.028573 266.067187 46.023727 261.165312 C 46.03342 256.263438 44.085069 251.560156 40.619719 248.092031 C 37.159216 244.619062 32.462818 242.671875 27.562862 242.676719 Z M 307.437138 195.963594 C 302.338469 195.963594 297.719618 198.036719 294.380281 201.378906 C 290.914931 204.847031 288.96658 209.550312 288.976273 214.452188 C 288.96658 219.354062 290.914931 224.057344 294.380281 227.520625 C 297.835938 230.993594 302.537182 232.945625 307.437138 232.935937 C 312.535807 232.935937 317.149812 230.867656 320.493996 227.520625 C 323.959346 224.057344 325.907697 219.354062 325.898003 214.452188 C 325.907697 209.550312 323.959346 204.847031 320.493996 201.378906 C 317.033492 197.910781 312.337095 195.95875 307.437138 195.963594 Z M 260.793041 195.963594 C 255.694372 195.963594 251.075521 198.036719 247.736183 201.378906 C 244.265987 204.847031 242.322483 209.550312 242.327329 214.452188 C 242.322483 219.354062 244.265987 224.057344 247.736183 227.520625 C 251.19184 230.993594 255.893084 232.945625 260.793041 232.935937 C 265.89171 232.935937 270.505715 230.867656 273.845052 227.520625 C 277.315249 224.057344 279.258753 219.354062 279.253906 214.452188 C 279.258753 209.550312 277.315249 204.847031 273.845052 201.378906 C 270.389395 197.910781 265.688151 195.95875 260.793041 195.963594 Z M 214.144097 195.963594 C 209.045428 195.963594 204.431424 198.036719 201.092086 201.378906 C 197.621889 204.847031 195.678385 209.550312 195.683232 214.452188 C 195.678385 219.354062 197.621889 224.057344 201.092086 227.520625 C 204.547743 230.993594 209.244141 232.945625 214.144097 232.935937 C 219.242766 232.935937 223.861617 230.867656 227.200955 227.520625 C 230.671152 224.057344 232.614656 219.354062 232.609809 214.452188 C 232.614656 209.550312 230.671152 204.847031 227.200955 201.378906 C 223.745298 197.910781 219.044054 195.95875 214.144097 195.963594 Z M 167.5 195.963594 C 162.401331 195.963594 157.787326 198.036719 154.443142 201.378906 C 150.977792 204.847031 149.029442 209.550312 149.039135 214.452188 C 149.029442 219.354062 150.977792 224.057344 154.443142 227.520625 C 157.903646 230.993594 162.600043 232.945625 167.5 232.935937 C 172.598669 232.935937 177.212674 230.867656 180.556858 227.520625 C 184.022208 224.057344 185.970558 219.354062 185.960865 214.452188 C 185.970558 209.550312 184.022208 204.847031 180.556858 201.378906 C 177.096354 197.910781 172.399957 195.95875 167.5 195.963594 Z M 120.855903 195.963594 C 115.757234 195.963594 111.138383 198.036719 107.799045 201.378906 C 104.328848 204.847031 102.385344 209.550312 102.390191 214.452188 C 102.385344 219.354062 104.328848 224.057344 107.799045 227.520625 C 111.254702 230.993594 115.955946 232.945625 120.855903 232.935937 C 125.954572 232.935937 130.568576 230.867656 133.907914 227.520625 C 137.378111 224.057344 139.321615 219.354062 139.316768 214.452188 C 139.321615 209.550312 137.378111 204.847031 133.907914 201.378906 C 130.452257 197.910781 125.755859 195.95875 120.855903 195.963594 Z M 74.206959 195.963594 C 69.10829 195.963594 64.494285 198.036719 61.154948 201.378906 C 57.684751 204.847031 55.741247 209.550312 55.746094 214.452188 C 55.741247 219.354062 57.684751 224.057344 61.154948 227.520625 C 64.610605 230.993594 69.311849 232.945625 74.206959 232.935937 C 79.305628 232.935937 83.924479 230.867656 87.263817 227.520625 C 90.734013 224.057344 92.677517 219.354062 92.672671 214.452188 C 92.677517 209.550312 90.734013 204.847031 87.263817 201.378906 C 83.80816 197.910781 79.106916 195.95875 74.206959 195.963594 Z M 27.562862 195.963594 C 22.464193 195.963594 17.850188 198.036719 14.506004 201.378906 C 11.040654 204.847031 9.092303 209.550312 9.101997 214.452188 C 9.092303 219.354062 11.040654 224.057344 14.506004 227.520625 C 17.961661 230.993594 22.662905 232.945625 27.562862 232.935937 C 32.661531 232.935937 37.275535 230.867656 40.619719 227.520625 C 44.085069 224.057344 46.028573 219.354062 46.023727 214.452188 C 46.03342 209.550312 44.085069 204.847031 40.619719 201.378906 C 37.159216 197.910781 32.462818 195.95875 27.562862 195.963594 Z M 27.562862 149.255313 C 22.464193 149.255313 17.850188 151.323594 14.506004 154.670625 C 11.040654 158.133906 9.092303 162.837187 9.101997 167.739062 C 9.092303 172.640938 11.040654 177.344219 14.506004 180.812344 C 17.966508 184.280469 22.662905 186.2325 27.562862 186.227656 C 32.661531 186.227656 37.280382 184.154531 40.619719 180.812344 C 44.085069 177.344219 46.03342 172.640938 46.023727 167.739062 C 46.03342 162.837187 44.085069 158.133906 40.619719 154.670625 C 37.164062 151.197656 32.462818 149.245625 27.562862 149.255313 Z M 74.206959 149.255313 C 69.10829 149.255313 64.494285 151.323594 61.154948 154.670625 C 57.684751 158.133906 55.741247 162.837187 55.746094 167.739062 C 55.741247 172.640938 57.684751 177.344219 61.154948 180.812344 C 64.610605 184.285313 69.311849 186.2325 74.206959 186.227656 C 79.305628 186.227656 83.924479 184.154531 87.263817 180.812344 C 90.734013 177.344219 92.677517 172.640938 92.672671 167.739062 C 92.677517 162.837187 90.734013 158.133906 87.263817 154.670625 C 83.80816 151.197656 79.106916 149.245625 74.206959 149.255313 Z M 120.855903 149.255313 C 115.757234 149.255313 111.138383 151.323594 107.799045 154.670625 C 104.328848 158.133906 102.385344 162.837187 102.390191 167.739062 C 102.385344 172.640938 104.328848 177.344219 107.799045 180.812344 C 111.254702 184.280469 115.955946 186.2325 120.855903 186.227656 C 125.954572 186.227656 130.568576 184.154531 133.907914 180.812344 C 137.378111 177.344219 139.321615 172.640938 139.316768 167.739062 C 139.321615 162.837187 137.378111 158.133906 133.907914 154.670625 C 130.452257 151.197656 125.755859 149.245625 120.855903 149.255313 Z M 167.5 149.255313 C 162.401331 149.255313 157.787326 151.323594 154.443142 154.670625 C 150.977792 158.133906 149.029442 162.837187 149.039135 167.739062 C 149.029442 172.640938 150.977792 177.344219 154.443142 180.812344 C 157.903646 184.280469 162.600043 186.2325 167.5 186.227656 C 172.598669 186.227656 177.212674 184.154531 180.556858 180.812344 C 184.022208 177.344219 185.970558 172.640938 185.960865 167.739062 C 185.970558 162.837187 184.022208 158.133906 180.556858 154.670625 C 177.096354 151.197656 172.399957 149.245625 167.5 149.255313 Z M 214.144097 149.255313 C 209.045428 149.255313 204.431424 151.323594 201.092086 154.670625 C 197.621889 158.133906 195.678385 162.837187 195.683232 167.739062 C 195.678385 172.640938 197.621889 177.344219 201.092086 180.812344 C 204.547743 184.285313 209.244141 186.2325 214.144097 186.227656 C 219.242766 186.227656 223.861617 184.154531 227.200955 180.812344 C 230.671152 177.344219 232.614656 172.640938 232.609809 167.739062 C 232.614656 162.837187 230.671152 158.133906 227.200955 154.670625 C 223.745298 151.197656 219.044054 149.245625 214.144097 149.255313 Z M 260.793041 149.255313 C 255.694372 149.255313 251.075521 151.323594 247.736183 154.670625 C 244.265987 158.133906 242.322483 162.837187 242.327329 167.739062 C 242.322483 172.640938 244.265987 177.344219 247.736183 180.812344 C 251.19184 184.280469 255.893084 186.2325 260.793041 186.227656 C 265.89171 186.227656 270.505715 184.154531 273.845052 180.812344 C 277.315249 177.344219 279.258753 172.640938 279.253906 167.739062 C 279.258753 162.837187 277.315249 158.133906 273.845052 154.670625 C 270.389395 151.197656 265.692998 149.245625 260.793041 149.255313 Z M 307.437138 149.255313 C 302.338469 149.255313 297.719618 151.323594 294.380281 154.670625 C 290.914931 158.133906 288.96658 162.837187 288.976273 167.739062 C 288.96658 172.640938 290.914931 177.344219 294.380281 180.812344 C 297.835938 184.285313 302.537182 186.2325 307.437138 186.227656 C 312.535807 186.227656 317.149812 184.154531 320.493996 180.812344 C 323.959346 177.344219 325.907697 172.640938 325.898003 167.739062 C 325.907697 162.837187 323.959346 158.133906 320.493996 154.670625 C 317.033492 151.197656 312.337095 149.245625 307.437138 149.255313 Z M 74.206959 102.542187 C 69.10829 102.542187 64.494285 104.610469 61.154948 107.9575 C 57.684751 111.420781 55.741247 116.124062 55.746094 121.025937 C 55.741247 125.927813 57.684751 130.631094 61.154948 134.099219 C 64.610605 137.572188 69.307002 139.519375 74.206959 139.514531 C 79.305628 139.514531 83.924479 137.44625 87.263817 134.099219 C 90.734013 130.631094 92.677517 125.927813 92.672671 121.025937 C 92.677517 116.124062 90.734013 111.420781 87.263817 107.9575 C 83.80816 104.484531 79.106916 102.537344 74.206959 102.542187 Z M 120.855903 102.542187 C 115.757234 102.542187 111.138383 104.610469 107.799045 107.9575 C 104.328848 111.420781 102.385344 116.124062 102.390191 121.025937 C 102.385344 125.927813 104.328848 130.631094 107.799045 134.099219 C 111.254702 137.572188 115.955946 139.519375 120.855903 139.514531 C 125.954572 139.514531 130.568576 137.44625 133.907914 134.099219 C 137.378111 130.631094 139.321615 125.927813 139.316768 121.025937 C 139.321615 116.124062 137.378111 111.420781 133.907914 107.9575 C 130.452257 104.484531 125.755859 102.5325 120.855903 102.542187 Z M 167.5 102.542187 C 162.401331 102.542187 157.787326 104.610469 154.443142 107.9575 C 150.977792 111.420781 149.029442 116.124062 149.039135 121.025937 C 149.029442 125.927813 150.977792 130.631094 154.443142 134.099219 C 157.903646 137.572188 162.600043 139.519375 167.5 139.514531 C 172.598669 139.514531 177.212674 137.44625 180.556858 134.099219 C 184.022208 130.631094 185.970558 125.927813 185.960865 121.025937 C 185.970558 116.124062 184.022208 111.420781 180.556858 107.9575 C 177.096354 104.484531 172.399957 102.537344 167.5 102.542187 Z M 214.144097 102.542187 C 209.045428 102.542187 204.431424 104.610469 201.092086 107.9575 C 197.621889 111.420781 195.678385 116.124062 195.683232 121.025937 C 195.678385 125.927813 197.621889 130.631094 201.092086 134.099219 C 204.547743 137.572188 209.244141 139.519375 214.144097 139.514531 C 219.242766 139.514531 223.861617 137.44625 227.200955 134.099219 C 230.671152 130.631094 232.614656 125.927813 232.609809 121.025937 C 232.614656 116.124062 230.671152 111.420781 227.200955 107.9575 C 223.745298 104.484531 219.044054 102.537344 214.144097 102.542187 Z M 260.793041 102.542187 C 255.694372 102.542187 251.075521 104.610469 247.736183 107.9575 C 244.265987 111.420781 242.322483 116.124062 242.327329 121.025937 C 242.322483 125.927813 244.265987 130.631094 247.736183 134.099219 C 251.19184 137.572188 255.893084 139.519375 260.793041 139.514531 C 265.89171 139.514531 270.505715 137.44625 273.845052 134.099219 C 277.315249 130.631094 279.258753 125.927813 279.253906 121.025937 C 279.258753 116.124062 277.315249 111.420781 273.845052 107.9575 C 270.389395 104.484531 265.688151 102.5325 260.793041 102.542187 Z M 307.437138 102.542187 C 302.338469 102.542187 297.719618 104.610469 294.380281 107.9575 C 290.914931 111.420781 288.96658 116.124062 288.976273 121.025937 C 288.96658 125.927813 290.914931 130.631094 294.380281 134.099219 C 297.835938 137.572188 302.537182 139.519375 307.437138 139.514531 C 312.535807 139.514531 317.149812 137.44625 320.493996 134.099219 C 323.959346 130.631094 325.907697 125.927813 325.898003 121.025937 C 325.907697 116.124062 323.959346 111.420781 320.493996 107.9575 C 317.033492 104.484531 312.337095 102.537344 307.437138 102.542187 Z M 27.562862 102.542187 C 22.464193 102.542187 17.850188 104.610469 14.506004 107.9575 C 11.040654 111.420781 9.092303 116.124062 9.101997 121.025937 C 9.092303 125.927813 11.040654 130.631094 14.506004 134.099219 C 17.961661 137.572188 22.662905 139.519375 27.562862 139.514531 C 32.661531 139.514531 37.275535 137.44625 40.619719 134.099219 C 44.085069 130.631094 46.028573 125.927813 46.023727 121.025937 C 46.03342 116.124062 44.085069 111.420781 40.619719 107.9575 C 37.159216 104.484531 32.462818 102.5325 27.562862 102.542187 Z M 307.437138 55.829062 C 302.338469 55.829062 297.719618 57.902187 294.380281 61.244375 C 290.914931 64.7125 288.96658 69.415781 288.976273 74.317656 C 288.96658 79.219531 290.914931 83.922813 294.380281 87.386094 C 297.835938 90.859062 302.537182 92.80625 307.437138 92.801406 C 312.535807 92.801406 317.149812 90.733125 320.493996 87.386094 C 323.959346 83.922813 325.907697 79.219531 325.898003 74.317656 C 325.907697 69.415781 323.959346 64.7125 320.493996 61.244375 C 317.033492 57.771406 312.337095 55.824219 307.437138 55.829062 Z M 260.793041 55.829062 C 255.694372 55.829062 251.075521 57.902187 247.736183 61.244375 C 244.265987 64.707656 242.322483 69.415781 242.327329 74.317656 C 242.322483 79.219531 244.265987 83.922813 247.736183 87.386094 C 251.19184 90.859062 255.893084 92.80625 260.793041 92.801406 C 265.89171 92.801406 270.505715 90.733125 273.845052 87.386094 C 277.315249 83.922813 279.258753 79.219531 279.253906 74.317656 C 279.258753 69.415781 277.315249 64.7125 273.845052 61.244375 C 270.389395 57.771406 265.688151 55.824219 260.793041 55.829062 Z M 214.144097 55.829062 C 209.045428 55.829062 204.431424 57.902187 201.092086 61.244375 C 197.621889 64.7125 195.678385 69.415781 195.683232 74.317656 C 195.678385 79.219531 197.621889 83.922813 201.092086 87.386094 C 204.547743 90.859062 209.244141 92.80625 214.144097 92.801406 C 219.242766 92.801406 223.861617 90.733125 227.200955 87.386094 C 230.671152 83.922813 232.614656 79.219531 232.609809 74.317656 C 232.614656 69.415781 230.671152 64.7125 227.200955 61.244375 C 223.745298 57.771406 219.044054 55.824219 214.144097 55.829062 Z M 167.5 55.829062 C 162.401331 55.829062 157.787326 57.902187 154.443142 61.244375 C 150.977792 64.707656 149.029442 69.415781 149.039135 74.317656 C 149.029442 79.219531 150.977792 83.922813 154.443142 87.386094 C 157.903646 90.859062 162.600043 92.80625 167.5 92.801406 C 172.598669 92.801406 177.212674 90.733125 180.556858 87.386094 C 184.022208 83.922813 185.970558 79.219531 185.960865 74.317656 C 185.970558 69.415781 184.022208 64.7125 180.556858 61.244375 C 177.096354 57.771406 172.399957 55.824219 167.5 55.829062 Z M 120.855903 55.829062 C 115.757234 55.829062 111.138383 57.902187 107.799045 61.244375 C 104.328848 64.707656 102.385344 69.415781 102.390191 74.317656 C 102.385344 79.219531 104.328848 83.922813 107.799045 87.386094 C 111.254702 90.859062 115.955946 92.80625 120.855903 92.801406 C 125.954572 92.801406 130.568576 90.733125 133.907914 87.386094 C 137.378111 83.922813 139.321615 79.219531 139.316768 74.317656 C 139.321615 69.415781 137.378111 64.7125 133.907914 61.244375 C 130.452257 57.771406 125.755859 55.824219 120.855903 55.829062 Z M 74.206959 55.829062 C 69.10829 55.829062 64.494285 57.902187 61.154948 61.244375 C 57.684751 64.7125 55.741247 69.415781 55.746094 74.317656 C 55.741247 79.219531 57.684751 83.922813 61.154948 87.386094 C 64.610605 90.859062 69.311849 92.80625 74.206959 92.801406 C 79.305628 92.801406 83.924479 90.733125 87.263817 87.386094 C 90.734013 83.922813 92.677517 79.219531 92.672671 74.317656 C 92.677517 69.415781 90.734013 64.7125 87.263817 61.244375 C 83.80816 57.771406 79.106916 55.824219 74.206959 55.829062 Z M 27.562862 55.829062 C 22.464193 55.829062 17.850188 57.902187 14.506004 61.244375 C 11.040654 64.707656 9.092303 69.410938 9.101997 74.312812 C 9.092303 79.219531 11.040654 83.922813 14.506004 87.386094 C 17.961661 90.859062 22.662905 92.80625 27.562862 92.801406 C 32.661531 92.801406 37.275535 90.733125 40.619719 87.386094 C 44.085069 83.922813 46.028573 79.219531 46.023727 74.317656 C 46.03342 69.410938 44.085069 64.707656 40.619719 61.244375 C 37.159216 57.771406 32.462818 55.824219 27.562862 55.829062 Z M 307.437138 9.115937 C 302.338469 9.115937 297.719618 11.184219 294.380281 14.53125 C 290.914931 17.994531 288.96658 22.697813 288.976273 27.599687 C 288.96658 32.506406 290.914931 37.209688 294.380281 40.672969 C 297.835938 44.145938 302.537182 46.093125 307.437138 46.088281 C 312.535807 46.088281 317.149812 44.02 320.493996 40.672969 C 323.959346 37.209688 325.907697 32.506406 325.898003 27.604531 C 325.907697 22.702656 323.959346 17.999375 320.493996 14.53125 C 317.033492 11.058281 312.337095 9.111094 307.437138 9.115937 Z M 260.793041 9.115937 C 255.694372 9.115937 251.075521 11.184219 247.736183 14.53125 C 244.265987 17.994531 242.322483 22.697813 242.327329 27.599687 C 242.322483 32.506406 244.265987 37.209688 247.736183 40.672969 C 251.19184 44.145938 255.893084 46.093125 260.793041 46.088281 C 265.89171 46.088281 270.505715 44.02 273.845052 40.672969 C 277.315249 37.209688 279.258753 32.506406 279.253906 27.604531 C 279.258753 22.702656 277.315249 17.999375 273.845052 14.53125 C 270.389395 11.058281 265.692998 9.111094 260.793041 9.115937 Z M 214.144097 9.115937 C 209.045428 9.115937 204.431424 11.184219 201.092086 14.53125 C 197.621889 17.994531 195.678385 22.697813 195.683232 27.599687 C 195.678385 32.506406 197.621889 37.209688 201.092086 40.672969 C 204.547743 44.145938 209.244141 46.093125 214.144097 46.088281 C 219.242766 46.088281 223.861617 44.02 227.200955 40.672969 C 230.671152 37.209688 232.614656 32.506406 232.609809 27.604531 C 232.614656 22.702656 230.671152 17.999375 227.200955 14.53125 C 223.745298 11.058281 219.044054 9.111094 214.144097 9.115937 Z M 167.5 9.115937 C 162.401331 9.115937 157.787326 11.184219 154.443142 14.53125 C 150.977792 17.994531 149.029442 22.697813 149.039135 27.599687 C 149.029442 32.506406 150.977792 37.209688 154.443142 40.672969 C 157.903646 44.145938 162.600043 46.093125 167.5 46.088281 C 172.598669 46.088281 177.212674 44.02 180.556858 40.672969 C 184.022208 37.209688 185.970558 32.506406 185.960865 27.604531 C 185.970558 22.702656 184.022208 17.999375 180.556858 14.53125 C 177.096354 11.058281 172.399957 9.111094 167.5 9.115937 Z M 120.855903 9.115937 C 115.757234 9.115937 111.138383 11.184219 107.799045 14.53125 C 104.328848 17.994531 102.385344 22.697813 102.390191 27.599687 C 102.385344 32.506406 104.328848 37.209688 107.799045 40.672969 C 111.254702 44.145938 115.955946 46.093125 120.855903 46.088281 C 125.954572 46.088281 130.568576 44.02 133.907914 40.672969 C 137.378111 37.209688 139.321615 32.506406 139.316768 27.604531 C 139.321615 22.702656 137.378111 17.999375 133.907914 14.53125 C 130.452257 11.058281 125.755859 9.111094 120.855903 9.115937 Z M 74.206959 9.115937 C 69.10829 9.115937 64.494285 11.184219 61.154948 14.53125 C 57.684751 17.994531 55.741247 22.697813 55.746094 27.599687 C 55.741247 32.506406 57.684751 37.209688 61.154948 40.672969 C 64.610605 44.145938 69.311849 46.093125 74.206959 46.088281 C 79.305628 46.088281 83.924479 44.02 87.263817 40.672969 C 90.734013 37.209688 92.677517 32.506406 92.672671 27.604531 C 92.677517 22.702656 90.734013 17.999375 87.263817 14.53125 C 83.80816 11.058281 79.106916 9.111094 74.211806 9.115937 Z M 27.562862 9.115937 C 22.464193 9.115937 17.850188 11.184219 14.506004 14.53125 C 11.040654 17.994531 9.092303 22.697813 9.101997 27.599687 C 9.092303 32.506406 11.040654 37.209688 14.506004 40.672969 C 17.961661 44.145938 22.662905 46.093125 27.562862 46.088281 C 32.661531 46.088281 37.275535 44.02 40.619719 40.672969 C 44.085069 37.209688 46.03342 32.506406 46.023727 27.604531 C 46.03342 22.702656 44.085069 17.999375 40.619719 14.53125 C 37.159216 11.058281 32.462818 9.111094 27.562862 9.115937 Z M 27.562862 9.115937 " transform="matrix(0.80597,0,0,0.806452,0,0)"/>
</g>
</svg>
